<?xml version="1.0" encoding="utf-8"?>
<!-- Generator: Adobe Illustrator 16.0.0, SVG Export Plug-In . SVG Version: 6.00 Build 0)  -->
<!DOCTYPE svg PUBLIC "-//W3C//DTD SVG 1.1//EN" "http://www.w3.org/Graphics/SVG/1.1/DTD/svg11.dtd">
<svg version="1.1" id="Livello_1" xmlns="http://www.w3.org/2000/svg" xmlns:xlink="http://www.w3.org/1999/xlink" x="0px" y="0px"
	 width="595.279px" height="841.89px" viewBox="0 0 595.279 841.89" enable-background="new 0 0 595.279 841.89"
	 xml:space="preserve">
<image overflow="visible" enable-background="new    " width="815" height="505" xlink:href="B0BE3EE364D4B5D1.png"  transform="matrix(0.6137 0 0 0.6137 47.5525 17.9062)">
</image>
<text transform="matrix(1 0 0 1 88.2458 370.5952)" font-family="'TitilliumWeb-Bold'" font-size="17.3988">Activity.3: Designing and coding the app</text>
<text transform="matrix(1 0 0 1 88.2458 450.3394)" font-family="'TitilliumWeb-Bold'" font-size="17.3988">1- Federico Lameri - Orly Golan</text>
<text transform="matrix(1 0 0 1 88.2458 492.8003)" font-family="'TitilliumWeb-Bold'" font-size="17.3988">2- Computers</text>
<text transform="matrix(1 0 0 1 88.2458 535.2632)" font-family="'TitilliumWeb-Bold'" font-size="17.3988">3- js bin and photoshop</text>
<text transform="matrix(1 0 0 1 88.2458 577.7241)" font-family="'TitilliumWeb-Bold'" font-size="17.3988">4- Computers</text>
<text transform="matrix(1 0 0 1 88.2458 620.1851)" font-family="'TitilliumWeb-Bold'" font-size="17.3988">5- none</text>
<text transform="matrix(1 0 0 1 88.2458 662.646)" font-family="'TitilliumWeb-Bold'" font-size="17.3988">6- Orly Golan, Federico Lameri</text>
<text transform="matrix(1 0 0 1 88.2458 705.1069)" font-family="'TitilliumWeb-Bold'" font-size="17.3988">7-Orly Golan  - coding Html and CSS </text>
<text transform="matrix(1 0 0 1 88.2458 725.9868)" font-family="'TitilliumWeb-Bold'" font-size="17.3988">   Federico Lameri - Design and UI</text>
<text transform="matrix(1 0 0 1 88.2458 747.5698)" font-family="'TitilliumWeb-Bold'" font-size="17.3988">        </text>
<rect x="190.139" y="178.445" fill="#FFFFFF" width="187" height="39"/>
<text transform="matrix(1 0 0 1 217.1394 207.4482)" font-family="'TitilliumWeb-Bold'" font-size="32.4186">Activity 3</text>
</svg>
