<?xml version="1.0" encoding="utf-8"?>
<!-- Generator: Adobe Illustrator 16.0.0, SVG Export Plug-In . SVG Version: 6.00 Build 0)  -->
<!DOCTYPE svg PUBLIC "-//W3C//DTD SVG 1.1//EN" "http://www.w3.org/Graphics/SVG/1.1/DTD/svg11.dtd">
<svg version="1.1" id="Livello_1" xmlns="http://www.w3.org/2000/svg" xmlns:xlink="http://www.w3.org/1999/xlink" x="0px" y="0px"
	 width="595.279px" height="841.89px" viewBox="0 0 595.279 841.89" enable-background="new 0 0 595.279 841.89"
	 xml:space="preserve">
<image overflow="visible" enable-background="new    " width="815" height="505" xlink:href="CD0BCF97FE1311B6.png"  transform="matrix(0.6137 0 0 0.6137 47.5525 17.9062)">
</image>
<text transform="matrix(1 0 0 1 88.2458 370.5952)" font-family="'TitilliumWeb-Bold'" font-size="17.3988">Activity 2: Wireframes</text>
<text transform="matrix(1 0 0 1 88.2458 450.3394)" font-family="'TitilliumWeb-Bold'" font-size="17.3988">1- Federico Lameri - Orly Golan</text>
<text transform="matrix(1 0 0 1 88.2458 492.8003)" font-family="'TitilliumWeb-Bold'" font-size="17.3988">2- On paper wireframes</text>
<text transform="matrix(1 0 0 1 88.2458 535.2632)" font-family="'TitilliumWeb-Bold'" font-size="17.3988">3- Wireframes of the application</text>
<text transform="matrix(1 0 0 1 88.2458 577.7241)" font-family="'TitilliumWeb-Bold'" font-size="17.3988">4- Papers and post-it</text>
<text transform="matrix(1 0 0 1 88.2458 620.1851)" font-family="'TitilliumWeb-Bold'" font-size="17.3988">5- Creative commons attribution  CC BY</text>
<text transform="matrix(1 0 0 1 88.2458 662.646)" font-family="'TitilliumWeb-Bold'" font-size="17.3988">6- Federico and Orly</text>
<text transform="matrix(1 0 0 1 88.2458 705.1069)" font-family="'TitilliumWeb-Bold'" font-size="17.3988">7- Orly Golan and  Federico Lameri - sketching</text>
<text transform="matrix(1 0 0 1 88.2458 747.5698)" font-family="'Helvetica-Bold'" font-size="17.3988">  </text>
<rect x="183.139" y="179.445" fill="#FFFFFF" width="187" height="39"/>
<text transform="matrix(1 0 0 1 210.1394 208.4482)" font-family="'TitilliumWeb-Bold'" font-size="32.4186">Activity 2</text>
</svg>
