<?xml version="1.0" encoding="utf-8"?>
<!-- Generator: Adobe Illustrator 16.0.0, SVG Export Plug-In . SVG Version: 6.00 Build 0)  -->
<!DOCTYPE svg PUBLIC "-//W3C//DTD SVG 1.1//EN" "http://www.w3.org/Graphics/SVG/1.1/DTD/svg11.dtd">
<svg version="1.1" id="Livello_1" xmlns="http://www.w3.org/2000/svg" xmlns:xlink="http://www.w3.org/1999/xlink" x="0px" y="0px"
	 width="5139.21px" height="2562.52px" viewBox="0 0 5139.21 2562.52" enable-background="new 0 0 5139.21 2562.52"
	 xml:space="preserve">
<g>
	<rect x="3250.539" y="647.108" fill="#FFFFFF" width="353.925" height="73.814"/>
	<text transform="matrix(1 0 0 1 3209.5156 701.9995)" fill="#010202" font-family="'TitilliumWeb-Bold'" font-size="61.3568">6 promotion &amp; d</text>
</g>
<g>
	<rect x="2977.356" y="1611.198" fill="#FFFFFF" width="353.925" height="73.813"/>
	<text transform="matrix(1 0 0 1 3028.459 1666.0889)" fill="#010202" font-family="'TitilliumWeb-Bold'" font-size="61.3568">4 Coding</text>
</g>
<g>
	<rect x="1810.451" y="1740.649" fill="#FFFFFF" width="353.923" height="73.812"/>
	<text transform="matrix(1 0 0 1 1861.5522 1795.5391)" fill="#010202" font-family="'TitilliumWeb-Bold'" font-size="61.3568">3 Design</text>
</g>
<g>
	<polygon fill="#FFFFFF" points="1847.014,720.147 2200.938,720.147 2200.938,793.959 2138.999,793.959 1847.014,793.959 	"/>
	<text transform="matrix(1 0 0 1 1848.5088 775.0376)" fill="#010202" font-family="'TitilliumWeb-Bold'" font-size="61.3568">2 wireframing</text>
</g>
<g>
	<rect x="390.059" y="1304.817" fill="#FFFFFF" width="353.923" height="73.813"/>
	<text transform="matrix(1 0 0 1 341.9463 1359.709)" fill="#010202" font-family="'TitilliumWeb-Bold'" font-size="61.3568">1 brainstorming</text>
</g>
<g>
	<g>
		<path fill="none" stroke="#000000" stroke-width="7" stroke-miterlimit="10" d="M925.785,1207.042
			c0,0,869.216-1409.06,1238.588-792.525c0,0,40.581,61.744,42.436,132.649"/>
		<g>
			<polygon points="2171.956,533.555 2200.934,597.051 2241.443,540.212 			"/>
		</g>
	</g>
</g>
<path fill="#FFFFFF" stroke="#000000" stroke-width="7" stroke-miterlimit="10" d="M390.059,1207.043"/>
<g>
	<g>
		<path fill="none" stroke="#000000" stroke-width="7" stroke-miterlimit="10" d="M371.704,1207.042c0,0-0.7-1.938-2.002-5.651"/>
		<path fill="none" stroke="#000000" stroke-width="7" stroke-miterlimit="10" stroke-dasharray="11.9681,11.9681" d="
			M365.788,1190.084C318.306,1051.361,13.248,108.41,495,110c0,0,2402.482-113.26,2842.592,172.508"/>
		<path fill="none" stroke="#000000" stroke-width="7" stroke-miterlimit="10" d="M3342.578,285.82
			c1.672,1.136,3.312,2.278,4.922,3.427"/>
		<g>
			<polygon points="3316.073,309.3 3384.457,323.271 3362.373,257.059 			"/>
		</g>
	</g>
</g>
<g>
	<g>
		<path fill="none" stroke="#000000" stroke-width="7" stroke-miterlimit="10" d="M2437.062,665.072
			c0,0,115.841,465.408-241.896,943.345"/>
		<g>
			<polygon points="2173.662,1578.929 2164.371,1648.104 2228.929,1621.571 			"/>
		</g>
	</g>
</g>
<g>
	<g>
		<path fill="none" stroke="#000000" stroke-width="7" stroke-miterlimit="10" d="M2355.445,1633.065
			c0,0,546.534-1178.61,957.328-180.61"/>
		<g>
			<polygon points="3276.426,1455.995 3331.278,1499.153 3341.238,1430.07 			"/>
		</g>
	</g>
</g>
<g>
	<g>
		<path fill="none" stroke="#000000" stroke-width="7" stroke-miterlimit="10" stroke-dasharray="12,12" d="M2977.356,1514.629
			c0,0,28.946-518.564,450.548-540.761C3744.471,957.201,4007,1137.366,4007,838c0-62.76-209.858-177.204-304.16-225.462"/>
		<g>
			<polygon points="3727.564,585.997 3657.891,590.123 3696.293,648.406 			"/>
		</g>
	</g>
</g>
<g>
	<rect x="4200.1" y="1583.234" fill="#FFFFFF" width="353.925" height="73.814"/>
	<text transform="matrix(1 0 0 1 4195.9268 1638.125)" fill="#010202" font-family="'TitilliumWeb-Bold'" font-size="61.3568">5 User testing</text>
</g>
<g>
	<g>
		<line fill="none" stroke="#000000" stroke-width="7" stroke-miterlimit="10" x1="3559" y1="1550" x2="4116.854" y2="1517.546"/>
		<g>
			<polygon points="4108.686,1552.984 4167,1514.633 4104.632,1483.297 			"/>
		</g>
	</g>
</g>
<g>
	<g>
		<path fill="none" stroke="#000000" stroke-width="7" stroke-miterlimit="10" stroke-dasharray="12,12" d="M4763,1550
			c0,0,504,600-1872,676.184C2608.338,2235.247,1435,1970,1435,1970s-371.33-142.939-120-556s608-104.785,608-104.785l24.553,58.472
			"/>
		<g>
			<polygon points="1911.417,1371.784 1966.997,1414.001 1975.778,1344.758 			"/>
		</g>
	</g>
</g>
<g>
	<g>
		<path fill="none" stroke="#000000" stroke-width="7" stroke-miterlimit="10" stroke-dasharray="12,12" d="M4407.317,2023.336
			c0,0-1330.674-95.602-1712.317-155.514c0,0-400-193.822-108-457.822c218.813-197.832,419.658-155.764,506.591-122.248"/>
		<g>
			<polygon points="3069.51,1315.753 3138.998,1309.218 3098.602,1252.299 			"/>
		</g>
	</g>
</g>
<g>
	<g>
		
			<line fill="none" stroke="#000000" stroke-width="7" stroke-miterlimit="10" stroke-dasharray="12,12" x1="4483" y1="87.856" x2="5008.77" y2="87.856"/>
		<g>
			<polygon points="4998.557,122.76 5059,87.859 4998.557,52.955 			"/>
		</g>
	</g>
</g>
<g>
	<g>
		<line fill="none" stroke="#000000" stroke-width="7" stroke-miterlimit="10" x1="4483" y1="180.688" x2="5008.77" y2="180.688"/>
		<g>
			<polygon points="4998.557,215.592 5059,180.691 4998.557,145.787 			"/>
		</g>
	</g>
</g>
<g>
	<g>
		
			<line fill="none" stroke="#000000" stroke-width="7" stroke-miterlimit="10" stroke-dasharray="30,30" x1="4483" y1="273.52" x2="5008.77" y2="273.52"/>
		<g>
			<polygon points="4998.557,308.424 5059,273.523 4998.557,238.619 			"/>
		</g>
	</g>
</g>
<text transform="matrix(1 0 0 1 4111 94.9424)" font-family="'TitilliumWeb-Regular'" font-size="50">Information flow</text>
<text transform="matrix(1 0 0 1 4111 187.7754)" font-family="'TitilliumWeb-Regular'" font-size="50">Material flow</text>
<text transform="matrix(1 0 0 1 4111 281.3154)" font-family="'TitilliumWeb-Regular'" font-size="50">Money flow</text>
<g>
	<g>
		<path fill="none" stroke="#000000" stroke-width="7" stroke-miterlimit="10" stroke-dasharray="30,30" d="M3839,590.126
			c0,0,1060-0.126,1144,427.874s84,692,20,920s-372,432-776,480s-707.287,20-1249.644-28S1827,2422,1519,2210
			s-480-481.869-204-576.935c197.093-67.887,351.35-21.977,423.443,9.822"/>
		<g>
			<polygon points="1713.303,1669.836 1782.999,1666.092 1744.916,1607.6 			"/>
		</g>
	</g>
</g>
<g>
	<g>
		<path fill="none" stroke="#000000" stroke-width="7" stroke-miterlimit="10" stroke-dasharray="30,30" d="M3384.459,2424.408
			c0,0-788.249-334.408-814.854-586.408s-2.863-276,69.395-356c0,0,124.055-96.487,279.41,33.58"/>
		<g>
			<polygon points="2886.89,1534.745 2954.998,1550.003 2934.166,1483.386 			"/>
		</g>
	</g>
</g>
<g>
	<g id="Your_Icon">
		<path fill="#010202" d="M879.982,192.521c0,0,0,11.266,0,13.99c0,5.528,15.215,10.012,34,10.012c18.785,0,34-4.482,34-10.012
			c0-2.725,0-13.99,0-13.99s-8.918,8.433-34,8.433C885.575,200.952,879.982,192.521,879.982,192.521z"/>
		<path fill="#010202" d="M879.982,212.376c0,0,0,16.163,0,18.885c0,5.529,15.215,10.013,34,10.013c18.785,0,34-4.482,34-10.013
			c0-2.722,0-18.885,0-18.885s-8.918,8.434-34,8.434C885.575,220.808,879.982,212.376,879.982,212.376z M917.298,230.683
			c0,1.99-1.615,3.605-3.607,3.605c-1.993,0-3.608-1.615-3.608-3.605c0-1.994,1.615-3.609,3.608-3.609
			C915.683,227.073,917.298,228.688,917.298,230.683z"/>
		<path fill="#010202" d="M913.982,162.614c-18.785,0-34,4.482-34,10.012c0,0.362,0,0.83,0,1.372c5,3.677,16.791,6.64,30.598,7.3
			c1.759,0.084,3.487,0.127,5.177,0.133c-1.026,0.053-2.068,0.094-3.122,0.119c-15.481,0.377-28.654-2.313-32.654-6.316
			c0,3.683,0,9.275,0,11.382c0,5.529,15.215,10.012,34,10.012c18.785,0,34-4.482,34-10.012c0-2.724,0-11.267,0-13.99
			C947.982,167.097,932.767,162.614,913.982,162.614z"/>
	</g>
	<rect x="905.482" y="222.744" fill="#010202" width="25.5" height="15"/>
</g>
<text transform="matrix(1 0 0 1 982.5273 218.1646)" font-family="'TitilliumWeb-Regular'" font-size="50">Start up materials</text>
<rect x="835.85" y="141.086" fill="none" stroke="#000000" stroke-miterlimit="10" width="548.863" height="118.889"/>
<g>
	<g>
		<path fill="none" stroke="#000000" stroke-width="7" stroke-miterlimit="10" d="M2411.83,606.551
			c0,0,107.17-486.378-492.83-465.464c-289.249,10.082-423.785,19.399-485.554,26.345"/>
		<g>
			<polygon points="1435.803,132.065 1384.712,179.617 1451.438,200.098 			"/>
		</g>
	</g>
</g>
<g>
	<g>
		<line fill="none" stroke="#000000" stroke-width="7" stroke-miterlimit="10" x1="905.482" y1="1222" x2="1032.224" y2="291.045"/>
		<g>
			<polygon points="1065.432,305.873 1039.003,241.274 996.265,296.456 			"/>
		</g>
	</g>
</g>
<g>
	<g id="Your_Icon_1_">
		<path fill="#010202" d="M2613.738,903.812c0,0,0,11.266,0,13.99c0,5.528,15.215,10.012,34,10.012s34-4.482,34-10.012
			c0-2.725,0-13.99,0-13.99s-8.918,8.433-34,8.433C2619.331,912.243,2613.738,903.812,2613.738,903.812z"/>
		<path fill="#010202" d="M2613.738,923.667c0,0,0,16.163,0,18.885c0,5.529,15.215,10.013,34,10.013s34-4.482,34-10.013
			c0-2.722,0-18.885,0-18.885s-8.918,8.434-34,8.434C2619.331,932.099,2613.738,923.667,2613.738,923.667z M2651.055,941.974
			c0,1.99-1.615,3.605-3.607,3.605c-1.993,0-3.608-1.615-3.608-3.605c0-1.994,1.615-3.609,3.608-3.609
			C2649.439,938.364,2651.055,939.979,2651.055,941.974z"/>
		<path fill="#010202" d="M2647.738,873.905c-18.785,0-34,4.482-34,10.012c0,0.362,0,0.83,0,1.372c5,3.677,16.791,6.64,30.598,7.3
			c1.759,0.084,3.486,0.127,5.178,0.133c-1.027,0.053-2.068,0.094-3.122,0.119c-15.481,0.377-28.653-2.313-32.653-6.316
			c0,3.683,0,9.275,0,11.382c0,5.529,15.215,10.012,34,10.012s34-4.482,34-10.012c0-2.724,0-11.267,0-13.99
			C2681.738,878.388,2666.523,873.905,2647.738,873.905z"/>
	</g>
	<rect x="2639.238" y="934.035" fill="#010202" width="25.5" height="15"/>
</g>
<text transform="matrix(1 0 0 1 2716.2832 929.4551)" font-family="'TitilliumWeb-Regular'" font-size="50">Design</text>
<rect x="2569.606" y="852.377" fill="none" stroke="#000000" stroke-width="0.7794" stroke-miterlimit="10" width="333.394" height="118.888"/>
<g>
	<g id="Your_Icon_3_">
		<path fill="#010202" d="M4451.45,919.804c0,0,0,11.266,0,13.99c0,5.528,15.215,10.012,34,10.012s34-4.482,34-10.012
			c0-2.725,0-13.99,0-13.99s-8.918,8.433-34,8.433C4457.043,928.235,4451.45,919.804,4451.45,919.804z"/>
		<path fill="#010202" d="M4451.45,939.659c0,0,0,16.163,0,18.885c0,5.529,15.215,10.013,34,10.013s34-4.482,34-10.013
			c0-2.722,0-18.885,0-18.885s-8.918,8.434-34,8.434C4457.043,948.091,4451.45,939.659,4451.45,939.659z M4488.767,957.966
			c0,1.99-1.615,3.605-3.607,3.605c-1.993,0-3.608-1.615-3.608-3.605c0-1.994,1.615-3.609,3.608-3.609
			C4487.151,954.356,4488.767,955.972,4488.767,957.966z"/>
		<path fill="#010202" d="M4485.45,889.897c-18.785,0-34,4.482-34,10.012c0,0.362,0,0.83,0,1.372c5,3.677,16.791,6.64,30.598,7.3
			c1.759,0.084,3.486,0.127,5.178,0.133c-1.027,0.053-2.068,0.094-3.122,0.119c-15.481,0.377-28.653-2.313-32.653-6.316
			c0,3.683,0,9.275,0,11.382c0,5.529,15.215,10.012,34,10.012s34-4.482,34-10.012c0-2.724,0-11.267,0-13.99
			C4519.45,894.38,4504.235,889.897,4485.45,889.897z"/>
	</g>
	<rect x="4476.95" y="950.027" fill="#010202" width="25.5" height="15"/>
</g>
<text transform="matrix(1 0 0 1 4553.9951 945.4414)" font-family="'TitilliumWeb-Regular'" font-size="50">app v.1.0</text>
<rect x="4407.317" y="868.37" fill="none" stroke="#000000" stroke-width="0.814" stroke-miterlimit="10" width="363.683" height="118.888"/>
<g>
	<g>
		<path fill="none" stroke="#000000" stroke-width="7" stroke-miterlimit="10" d="M1319,259.975c0,0-161.34,523.904,247.33,740.964
			c328.61,174.538,297.293,466.754,274.491,582.867"/>
		<g>
			<polygon points="1808.368,1567.039 1830.997,1633.064 1876.871,1580.46 			"/>
		</g>
	</g>
</g>
<g>
	<g>
		
			<line fill="none" stroke="#000000" stroke-width="7" stroke-miterlimit="10" x1="2309.667" y1="1648.105" x2="2592.378" y2="1046.402"/>
		<g>
			<polygon points="2619.626,1070.488 2613.741,1000.941 2556.447,1040.804 			"/>
		</g>
	</g>
</g>
<g>
	<g id="Your_Icon_2_">
		<path fill="#010202" d="M3481.899,1148.579c0,0,0,11.266,0,13.99c0,5.528,15.215,10.012,34,10.012s34-4.482,34-10.012
			c0-2.725,0-13.99,0-13.99s-8.918,8.433-34,8.433C3487.492,1157.011,3481.899,1148.579,3481.899,1148.579z"/>
		<path fill="#010202" d="M3481.899,1168.435c0,0,0,16.163,0,18.885c0,5.529,15.215,10.013,34,10.013s34-4.482,34-10.013
			c0-2.722,0-18.885,0-18.885s-8.918,8.434-34,8.434C3487.492,1176.866,3481.899,1168.435,3481.899,1168.435z M3519.216,1186.741
			c0,1.99-1.615,3.605-3.607,3.605c-1.993,0-3.608-1.615-3.608-3.605c0-1.994,1.615-3.609,3.608-3.609
			C3517.601,1183.132,3519.216,1184.747,3519.216,1186.741z"/>
		<path fill="#010202" d="M3515.899,1118.673c-18.785,0-34,4.482-34,10.012c0,0.362,0,0.83,0,1.372c5,3.677,16.791,6.64,30.598,7.3
			c1.759,0.084,3.486,0.127,5.178,0.133c-1.027,0.053-2.068,0.094-3.122,0.119c-15.481,0.377-28.653-2.313-32.653-6.316
			c0,3.683,0,9.275,0,11.382c0,5.529,15.215,10.012,34,10.012s34-4.482,34-10.012c0-2.724,0-11.267,0-13.99
			C3549.899,1123.155,3534.685,1118.673,3515.899,1118.673z"/>
	</g>
	<rect x="3507.399" y="1178.803" fill="#010202" width="25.5" height="15"/>
</g>
<text transform="matrix(1 0 0 1 3584.4443 1174.2227)" font-family="'TitilliumWeb-Regular'" font-size="50">development</text>
<rect x="3437.766" y="1097.145" fill="none" stroke="#000000" stroke-width="0.948" stroke-miterlimit="10" width="493.307" height="118.889"/>
<g>
	<g>
		
			<line fill="none" stroke="#000000" stroke-width="7" stroke-miterlimit="10" x1="2711.258" y1="1000.939" x2="2919.418" y2="1392.423"/>
		<g>
			<polygon points="2883.805,1399.792 2942.997,1436.775 2945.438,1367.021 			"/>
		</g>
	</g>
</g>
<g>
	<g>
		
			<line fill="none" stroke="#000000" stroke-width="7" stroke-miterlimit="10" x1="3532.898" y1="1494" x2="3590.11" y2="1302.136"/>
		<g>
			<polygon points="3620.641,1321.897 3604.467,1254.001 3553.746,1301.95 			"/>
		</g>
	</g>
</g>
<g>
	<g>
		<path fill="none" stroke="#000000" stroke-width="7" stroke-miterlimit="10" d="M3951,1148.579c0,0,444-182.513,532,67.454
			c38.268,108.698,56.684,171.643,65.277,208.069"/>
		<g>
			<polygon points="4511.48,1418.668 4554.021,1474 4580.68,1409.494 			"/>
		</g>
	</g>
</g>
<g>
	<g>
		<polyline fill="none" stroke="#000000" stroke-width="7" stroke-miterlimit="10" points="4737.651,1514.629 4553.995,1168.435 
			4001.223,1177.939 		"/>
		<g>
			<polygon points="4010.834,1142.864 3951,1178.799 4012.034,1212.659 			"/>
		</g>
	</g>
</g>
<g>
	<g>
		<path fill="none" stroke="#000000" stroke-width="7" stroke-miterlimit="10" d="M4603,852.377
			c0,0-553.645-730.377-1110.822-738.377S2859,345.134,2859,345.134s-90.358,181.663,300.412,217.268"/>
		<g>
			<polygon points="3146.561,596.14 3209.516,566.003 3151.943,526.542 			"/>
		</g>
	</g>
</g>
<g>
	<g>
		
			<line fill="none" stroke="#000000" stroke-width="7" stroke-miterlimit="10" x1="3819" y1="1084.281" x2="4328.318" y2="957.568"/>
		<g>
			<polygon points="4326.834,993.906 4377.063,945.445 4309.98,926.166 			"/>
		</g>
	</g>
</g>
</svg>
