<?xml version="1.0" encoding="utf-8"?>
<!-- Generator: Adobe Illustrator 16.0.0, SVG Export Plug-In . SVG Version: 6.00 Build 0)  -->
<!DOCTYPE svg PUBLIC "-//W3C//DTD SVG 1.1//EN" "http://www.w3.org/Graphics/SVG/1.1/DTD/svg11.dtd">
<svg version="1.1" id="Livello_1" xmlns="http://www.w3.org/2000/svg" xmlns:xlink="http://www.w3.org/1999/xlink" x="0px" y="0px"
	 width="5139.21px" height="2562.52px" viewBox="0 0 5139.21 2562.52" enable-background="new 0 0 5139.21 2562.52"
	 xml:space="preserve">
<image overflow="visible" enable-background="new    " width="525" height="745" xlink:href="prova/Project04-1314/analysis /activityDiagrams/6_activity_system_reduced.png"  transform="matrix(3.0702 0 0 3.0702 2764.9214 -259.3555)">
</image>
<image overflow="visible" enable-background="new    " width="525" height="745" xlink:href="prova/Project04-1314/analysis /activityDiagrams/5_activity_system_reduced.png"  transform="matrix(2.4867 0 0 2.4867 3854.9741 840.2832)">
</image>
<image overflow="visible" enable-background="new    " width="525" height="745" xlink:href="prova/Project04-1314/analysis /activityDiagrams/4_activity_system_reduced.png"  transform="matrix(2.4469 0 0 2.4469 2637.4409 868.5684)">
</image>
<image overflow="visible" enable-background="new    " width="525" height="745" xlink:href="prova/Project04-1314/analysis /activityDiagrams/2_activity_system_reduced.png"  transform="matrix(2.4076 0 0 2.4076 1570.2456 -7.0859)">
</image>
<image overflow="visible" enable-background="new    " width="525" height="745" xlink:href="prova/Project04-1314/analysis /activityDiagrams/3_activity_system_reduced.png"  transform="matrix(2.8388 0 0 2.8388 1385.6694 909.0723)">
</image>
<image overflow="visible" enable-background="new    " width="525" height="745" xlink:href="prova/Project04-1314/analysis /activityDiagrams/1_activity_system_reduced.png"  transform="matrix(2.6596 0 0 2.6596 -14.1724 523.8789)">
</image>
<g>
	<rect x="1810.451" y="1740.649" fill="#FFFFFF" width="353.923" height="73.812"/>
	<text transform="matrix(1 0 0 1 1861.5513 1795.5391)" fill="#010202" font-family="'TitilliumWeb-Bold'" font-size="61.3568">3 Design</text>
</g>
<g>
	<g>
		<path fill="none" stroke="#000000" stroke-width="7" stroke-miterlimit="10" d="M925.785,1207.042
			c0,0,869.216-1409.06,1238.588-792.525c0,0,40.581,61.744,42.436,132.649"/>
		<g>
			<polygon points="2171.956,533.555 2200.934,597.051 2241.443,540.212 			"/>
		</g>
	</g>
</g>
<path fill="#FFFFFF" stroke="#000000" stroke-width="7" stroke-miterlimit="10" d="M390.059,1207.043"/>
<g>
	<g>
		<path fill="none" stroke="#000000" stroke-width="7" stroke-miterlimit="10" d="M371.704,1207.042c0,0-0.7-1.938-2.002-5.651"/>
		<path fill="none" stroke="#000000" stroke-width="7" stroke-miterlimit="10" stroke-dasharray="11.9681,11.9681" d="
			M365.788,1190.084C318.306,1051.361,13.248,108.41,495,110c0,0,2402.482-113.26,2842.591,172.508"/>
		<path fill="none" stroke="#000000" stroke-width="7" stroke-miterlimit="10" d="M3342.578,285.82
			c1.672,1.136,3.312,2.278,4.922,3.427"/>
		<g>
			<polygon points="3316.074,309.3 3384.457,323.271 3362.373,257.059 			"/>
		</g>
	</g>
</g>
<g>
	<g>
		<path fill="none" stroke="#000000" stroke-width="7" stroke-miterlimit="10" d="M2437.062,665.072
			c0,0,115.841,465.408-241.896,943.345"/>
		<g>
			<polygon points="2173.662,1578.929 2164.371,1648.104 2228.929,1621.571 			"/>
		</g>
	</g>
</g>
<g>
	<g>
		<path fill="none" stroke="#000000" stroke-width="7" stroke-miterlimit="10" d="M2355.445,1633.064
			c0,0,546.533-1178.609,957.328-180.609"/>
		<g>
			<polygon points="3276.425,1455.995 3331.279,1499.153 3341.238,1430.07 			"/>
		</g>
	</g>
</g>
<g>
	<g>
		<path fill="none" stroke="#000000" stroke-width="7" stroke-miterlimit="10" stroke-dasharray="12,12" d="M2977.355,1514.629
			c0,0,28.947-518.562,450.549-540.761C3744.47,957.201,4007,1137.366,4007,838c0-62.76-209.857-177.204-304.16-225.462"/>
		<g>
			<polygon points="3727.564,585.997 3657.89,590.123 3696.292,648.406 			"/>
		</g>
	</g>
</g>
<g>
	<g>
		
			<line fill="none" stroke="#000000" stroke-width="7" stroke-miterlimit="10" x1="4159.305" y1="1480.939" x2="3602.109" y2="1523.2"/>
		<g>
			<polygon points="3609.651,1487.623 3552.021,1526.994 3614.929,1557.229 			"/>
		</g>
	</g>
</g>
<g>
	<g>
		<path fill="none" stroke="#000000" stroke-width="7" stroke-miterlimit="10" stroke-dasharray="12,12" d="M4763,1550
			c0,0,504,600-1872,676.184C2608.337,2235.247,1435,1970,1435,1970s-371.33-142.939-120-556s608-104.785,608-104.785l24.553,58.473
			"/>
		<g>
			<polygon points="1911.417,1371.784 1966.997,1414.001 1975.777,1344.758 			"/>
		</g>
	</g>
</g>
<g>
	<g>
		<path fill="none" stroke="#000000" stroke-width="7" stroke-miterlimit="10" stroke-dasharray="12,12" d="M4407.316,2023.336
			c0,0-1330.674-95.602-1712.316-155.514c0,0-400-193.822-108-457.822c218.812-197.832,419.658-155.764,506.592-122.248"/>
		<g>
			<polygon points="3069.509,1315.753 3138.998,1309.218 3098.601,1252.299 			"/>
		</g>
	</g>
</g>
<g>
	<g>
		
			<line fill="none" stroke="#000000" stroke-width="7" stroke-miterlimit="10" stroke-dasharray="12,12" x1="4483" y1="87.856" x2="5008.769" y2="87.856"/>
		<g>
			<polygon points="4998.556,122.76 5059,87.859 4998.556,52.955 			"/>
		</g>
	</g>
</g>
<g>
	<g>
		<line fill="none" stroke="#000000" stroke-width="7" stroke-miterlimit="10" x1="4483" y1="180.688" x2="5008.769" y2="180.688"/>
		<g>
			<polygon points="4998.556,215.592 5059,180.691 4998.556,145.787 			"/>
		</g>
	</g>
</g>
<g>
	<g>
		
			<line fill="none" stroke="#000000" stroke-width="7" stroke-miterlimit="10" stroke-dasharray="30,30" x1="4483" y1="273.52" x2="5008.769" y2="273.52"/>
		<g>
			<polygon points="4998.556,308.424 5059,273.523 4998.556,238.619 			"/>
		</g>
	</g>
</g>
<text transform="matrix(1 0 0 1 4110.9995 94.9424)" font-family="'TitilliumWeb-Regular'" font-size="50">Information flow</text>
<text transform="matrix(1 0 0 1 4110.9995 187.7754)" font-family="'TitilliumWeb-Regular'" font-size="50">Material flow</text>
<text transform="matrix(1 0 0 1 4110.9995 281.3154)" font-family="'TitilliumWeb-Regular'" font-size="50">Money flow</text>
<g>
	<g>
		<path fill="none" stroke="#000000" stroke-width="7" stroke-miterlimit="10" stroke-dasharray="30,30" d="M3839,590.126
			c0,0,1060-0.126,1144,427.874s84,692,20,920s-372,432-776,480s-707.287,20-1249.645-28C2434.999,2342,1827,2422,1519,2210
			s-480-481.869-204-576.936c197.093-67.888,351.35-21.978,423.443,9.821"/>
		<g>
			<polygon points="1713.303,1669.836 1782.999,1666.092 1744.916,1607.6 			"/>
		</g>
	</g>
</g>
<g>
	<g>
		<path fill="none" stroke="#000000" stroke-width="7" stroke-miterlimit="10" stroke-dasharray="30,30" d="M3384.458,2424.408
			c0,0-788.248-334.408-814.853-586.408c-26.605-252-2.863-276,69.394-356c0,0,124.055-96.487,279.41,33.58"/>
		<g>
			<polygon points="2886.89,1534.745 2954.998,1550.003 2934.166,1483.386 			"/>
		</g>
	</g>
</g>
<g>
	<g id="Your_Icon">
		<path fill="#010202" d="M879.982,192.521c0,0,0,11.266,0,13.99c0,5.528,15.215,10.012,34,10.012c18.783,0,34-4.482,34-10.012
			c0-2.725,0-13.99,0-13.99s-8.918,8.433-34,8.433C885.575,200.952,879.982,192.521,879.982,192.521z"/>
		<path fill="#010202" d="M879.982,212.376c0,0,0,16.163,0,18.885c0,5.529,15.215,10.013,34,10.013c18.783,0,34-4.482,34-10.013
			c0-2.722,0-18.885,0-18.885s-8.918,8.434-34,8.434C885.575,220.808,879.982,212.376,879.982,212.376z M917.298,230.683
			c0,1.99-1.615,3.605-3.606,3.605c-1.992,0-3.607-1.615-3.607-3.605c0-1.994,1.615-3.609,3.607-3.609
			C915.683,227.073,917.298,228.688,917.298,230.683z"/>
		<path fill="#010202" d="M913.982,162.614c-18.785,0-34,4.482-34,10.012c0,0.362,0,0.83,0,1.372c5,3.677,16.791,6.64,30.598,7.3
			c1.759,0.084,3.487,0.127,5.177,0.133c-1.026,0.053-2.067,0.094-3.122,0.119c-15.479,0.377-28.654-2.313-32.654-6.316
			c0,3.683,0,9.275,0,11.382c0,5.529,15.217,10.012,34,10.012c18.785,0,34-4.482,34-10.012c0-2.724,0-11.267,0-13.99
			C947.982,167.097,932.768,162.614,913.982,162.614z"/>
	</g>
	<rect x="905.482" y="222.744" fill="#010202" width="25.5" height="15"/>
</g>
<text transform="matrix(1 0 0 1 982.5264 218.165)" font-family="'TitilliumWeb-Regular'" font-size="50">Start up materials</text>
<rect x="835.85" y="141.086" fill="none" stroke="#000000" stroke-miterlimit="10" width="548.863" height="118.889"/>
<g>
	<g>
		<path fill="none" stroke="#000000" stroke-width="7" stroke-miterlimit="10" d="M2411.83,606.551
			c0,0,107.17-486.378-492.83-465.464c-289.249,10.082-423.785,19.399-485.554,26.345"/>
		<g>
			<polygon points="1435.803,132.065 1384.712,179.617 1451.438,200.098 			"/>
		</g>
	</g>
</g>
<g>
	<g>
		<line fill="none" stroke="#000000" stroke-width="7" stroke-miterlimit="10" x1="905.482" y1="1222" x2="1032.224" y2="291.045"/>
		<g>
			<polygon points="1065.432,305.873 1039.003,241.274 996.265,296.456 			"/>
		</g>
	</g>
</g>
<g>
	<g id="Your_Icon_1_">
		<path fill="#010202" d="M2613.738,903.812c0,0,0,11.266,0,13.988c0,5.528,15.215,10.014,34,10.014s34-4.482,34-10.014
			c0-2.725,0-13.988,0-13.988s-8.918,8.433-34,8.433C2619.332,912.243,2613.738,903.812,2613.738,903.812z"/>
		<path fill="#010202" d="M2613.738,923.667c0,0,0,16.163,0,18.885c0,5.529,15.215,10.015,34,10.015s34-4.482,34-10.015
			c0-2.722,0-18.885,0-18.885s-8.918,8.434-34,8.434C2619.332,932.099,2613.738,923.667,2613.738,923.667z M2651.054,941.974
			c0,1.99-1.615,3.605-3.605,3.605c-1.994,0-3.609-1.615-3.609-3.605c0-1.992,1.615-3.607,3.609-3.607
			C2649.439,938.364,2651.054,939.979,2651.054,941.974z"/>
		<path fill="#010202" d="M2647.738,873.905c-18.785,0-34,4.48-34,10.012c0,0.362,0,0.83,0,1.372c5,3.677,16.791,6.64,30.598,7.3
			c1.76,0.084,3.486,0.127,5.178,0.133c-1.027,0.055-2.068,0.096-3.121,0.119c-15.479,0.377-28.654-2.312-32.654-6.314
			c0,3.683,0,9.273,0,11.382c0,5.529,15.219,10.012,34,10.012c18.785,0,34-4.48,34-10.012c0-2.725,0-11.269,0-13.99
			C2681.738,878.388,2666.523,873.905,2647.738,873.905z"/>
	</g>
	<rect x="2639.238" y="934.035" fill="#010202" width="25.5" height="15"/>
</g>
<text transform="matrix(1 0 0 1 2716.2827 929.4551)" font-family="'TitilliumWeb-Regular'" font-size="50">Design</text>
<rect x="2569.605" y="852.377" fill="none" stroke="#000000" stroke-width="0.7794" stroke-miterlimit="10" width="333.394" height="118.888"/>
<g>
	<g id="Your_Icon_3_">
		<path fill="#010202" d="M4451.451,919.804c0,0,0,11.268,0,13.99c0,5.528,15.215,10.012,34,10.012s34-4.48,34-10.012
			c0-2.725,0-13.99,0-13.99s-8.918,8.435-34,8.435C4457.042,928.235,4451.451,919.804,4451.451,919.804z"/>
		<path fill="#010202" d="M4451.451,939.659c0,0,0,16.163,0,18.885c0,5.529,15.215,10.013,34,10.013s34-4.48,34-10.013
			c0-2.722,0-18.885,0-18.885s-8.918,8.434-34,8.434C4457.042,948.091,4451.451,939.659,4451.451,939.659z M4488.767,957.966
			c0,1.99-1.615,3.605-3.607,3.605s-3.607-1.615-3.607-3.605c0-1.994,1.615-3.607,3.607-3.607
			C4487.15,954.356,4488.767,955.972,4488.767,957.966z"/>
		<path fill="#010202" d="M4485.451,889.896c-18.785,0-34,4.481-34,10.013c0,0.362,0,0.83,0,1.372c5,3.677,16.791,6.64,30.598,7.3
			c1.758,0.084,3.486,0.127,5.18,0.133c-1.027,0.053-2.068,0.094-3.121,0.119c-15.482,0.377-28.654-2.313-32.654-6.316
			c0,3.685,0,9.275,0,11.384c0,5.527,15.215,10.012,34,10.012s34-4.482,34-10.012c0-2.726,0-11.269,0-13.99
			C4519.451,894.38,4504.234,889.896,4485.451,889.896z"/>
	</g>
	<rect x="4476.951" y="950.027" fill="#010202" width="25.5" height="15"/>
</g>
<text transform="matrix(1 0 0 1 4553.9937 945.4414)" font-family="'TitilliumWeb-Regular'" font-size="50">app v.1.0</text>
<rect x="4407.316" y="868.37" fill="none" stroke="#000000" stroke-width="0.814" stroke-miterlimit="10" width="363.684" height="118.888"/>
<g>
	<g>
		<path fill="none" stroke="#000000" stroke-width="7" stroke-miterlimit="10" d="M1319,259.975c0,0-161.34,523.904,247.33,740.964
			c328.609,174.536,297.293,466.754,274.49,582.865"/>
		<g>
			<polygon points="1808.368,1567.039 1830.997,1633.064 1876.871,1580.46 			"/>
		</g>
	</g>
</g>
<g>
	<g>
		
			<line fill="none" stroke="#000000" stroke-width="7" stroke-miterlimit="10" x1="2309.667" y1="1648.105" x2="2592.378" y2="1046.402"/>
		<g>
			<polygon points="2619.626,1070.488 2613.742,1000.941 2556.447,1040.804 			"/>
		</g>
	</g>
</g>
<g>
	<g id="Your_Icon_2_">
		<path fill="#010202" d="M3481.898,1148.579c0,0,0,11.266,0,13.99c0,5.526,15.217,10.012,34,10.012c18.785,0,34-4.482,34-10.012
			c0-2.727,0-13.99,0-13.99s-8.918,8.433-34,8.433C3487.492,1157.011,3481.898,1148.579,3481.898,1148.579z"/>
		<path fill="#010202" d="M3481.898,1168.436c0,0,0,16.162,0,18.886c0,5.528,15.217,10.013,34,10.013c18.785,0,34-4.482,34-10.013
			c0-2.724,0-18.886,0-18.886s-8.918,8.435-34,8.435C3487.492,1176.866,3481.898,1168.436,3481.898,1168.436z M3519.216,1186.741
			c0,1.989-1.615,3.604-3.607,3.604s-3.607-1.614-3.607-3.604c0-1.994,1.615-3.609,3.607-3.609S3519.216,1184.747,3519.216,1186.741
			z"/>
		<path fill="#010202" d="M3515.898,1118.673c-18.783,0-34,4.482-34,10.012c0,0.362,0,0.83,0,1.372c5,3.678,16.791,6.642,30.6,7.301
			c1.758,0.084,3.484,0.127,5.178,0.134c-1.027,0.053-2.068,0.094-3.123,0.119c-15.479,0.377-28.652-2.313-32.652-6.316
			c0,3.683,0,9.275,0,11.382c0,5.529,15.217,10.012,34,10.012c18.785,0,34-4.48,34-10.012c0-2.724,0-11.267,0-13.99
			C3549.898,1123.155,3534.685,1118.673,3515.898,1118.673z"/>
	</g>
	<rect x="3507.398" y="1178.803" fill="#010202" width="25.5" height="15"/>
</g>
<text transform="matrix(1 0 0 1 3584.4429 1174.2227)" font-family="'TitilliumWeb-Regular'" font-size="50">development</text>
<rect x="3437.765" y="1097.145" fill="none" stroke="#000000" stroke-width="0.948" stroke-miterlimit="10" width="493.309" height="118.891"/>
<g>
	<g>
		
			<line fill="none" stroke="#000000" stroke-width="7" stroke-miterlimit="10" x1="2711.257" y1="1000.939" x2="2919.417" y2="1392.423"/>
		<g>
			<polygon points="2883.804,1399.792 2942.998,1436.775 2945.437,1367.021 			"/>
		</g>
	</g>
</g>
<g>
	<g>
		
			<line fill="none" stroke="#000000" stroke-width="7" stroke-miterlimit="10" x1="3532.898" y1="1494" x2="3590.111" y2="1302.136"/>
		<g>
			<polygon points="3620.64,1321.896 3604.466,1254.001 3553.746,1301.95 			"/>
		</g>
	</g>
</g>
<g>
	<g>
		<path fill="none" stroke="#000000" stroke-width="7" stroke-miterlimit="10" d="M3951,1148.579c0,0,444-182.513,532,67.454
			c38.268,108.697,56.684,171.643,65.277,208.067"/>
		<g>
			<polygon points="4511.48,1418.668 4554.021,1474 4580.679,1409.494 			"/>
		</g>
	</g>
</g>
<g>
	<g>
		<polyline fill="none" stroke="#000000" stroke-width="7" stroke-miterlimit="10" points="4737.65,1514.629 4553.996,1168.436 
			4001.222,1177.939 		"/>
		<g>
			<polygon points="4010.833,1142.864 3951,1178.799 4012.035,1212.659 			"/>
		</g>
	</g>
</g>
<g>
	<g>
		
			<line fill="none" stroke="#000000" stroke-width="7" stroke-miterlimit="10" x1="3819" y1="1084.281" x2="4328.318" y2="957.568"/>
		<g>
			<polygon points="4326.833,993.906 4377.062,945.445 4309.98,926.166 			"/>
		</g>
	</g>
</g>
<rect x="66.673" y="803.533" width="384.038" height="99.01"/>
<text transform="matrix(1 0 0 1 99.6763 863.4927)" fill="#FFFFFF" font-family="'MyriadPro-Regular'" font-size="40">Concepts and ideas</text>
<rect x="755.963" y="1043.557" width="384.038" height="99.01"/>
<text transform="matrix(1 0 0 1 881.0962 1103.5166)" fill="#FFFFFF" font-family="'MyriadPro-Regular'" font-size="40">sketches</text>
<rect x="2316.951" y="424.869" width="216.371" height="99.01"/>
<text transform="matrix(1 0 0 1 2333.2349 484.8281)" fill="#FFFFFF" font-family="'MyriadPro-Regular'" font-size="40">wireframes</text>
<rect x="2295.949" y="1001.821" width="216.371" height="99.01"/>
<rect x="2404.135" y="1252.631" width="216.371" height="99.01"/>
<text transform="matrix(1 0 0 1 2312.2329 1061.7803)" fill="#FFFFFF" font-family="'MyriadPro-Regular'" font-size="40">wireframes</text>
<text transform="matrix(1 0 0 1 2425.1353 1315.7539)" fill="#FFFFFF" font-family="'MyriadPro-Regular'" font-size="40">MOCKUPS</text>
<rect x="4235.338" y="1978.438" width="310.741" height="99.01"/>
<text transform="matrix(1 0 0 1 4264.8394 2041.5605)" fill="#FFFFFF" font-family="'MyriadPro-Regular'" font-size="40">user feedbacks</text>
<rect x="3231.709" y="937.753" width="310.741" height="99.01"/>
<text transform="matrix(1 0 0 1 3296.6421 1000.8755)" fill="#FFFFFF" font-family="'MyriadPro-Regular'" font-size="40">feature list</text>
<rect x="3718.338" y="1450.959" width="310.741" height="99.01"/>
<text transform="matrix(1 0 0 1 3747.8394 1514.0801)" fill="#FFFFFF" font-family="'MyriadPro-Regular'" font-size="40">user feedbacks</text>
<rect x="4058.695" y="1047.64" width="198.806" height="99.01"/>
<text transform="matrix(1 0 0 1 4076.1499 1108.6362)" fill="#FFFFFF" font-family="'MyriadPro-Regular'" font-size="40">beta trials</text>
</svg>
