<?xml version="1.0" encoding="utf-8"?>
<!-- Generator: Adobe Illustrator 16.0.0, SVG Export Plug-In . SVG Version: 6.00 Build 0)  -->
<!DOCTYPE svg PUBLIC "-//W3C//DTD SVG 1.1//EN" "http://www.w3.org/Graphics/SVG/1.1/DTD/svg11.dtd">
<svg version="1.1" id="Livello_1" xmlns="http://www.w3.org/2000/svg" xmlns:xlink="http://www.w3.org/1999/xlink" x="0px" y="0px"
	 width="1629.91px" height="595.281px" viewBox="0 0 1629.91 595.281" enable-background="new 0 0 1629.91 595.281"
	 xml:space="preserve">
<rect x="120.374" y="202.331" fill="#FFFFFF" width="203.152" height="134.364"/>
<rect x="120.374" y="202.331" fill="none" stroke="#010202" stroke-width="0.3496" stroke-linejoin="round" width="203.152" height="134.364"/>
<text transform="matrix(1 0 0 1 124.106 216.4297)" fill="#010202" font-family="'TitilliumWeb-Regular'" font-size="13.5649">Research</text>
<rect x="120.268" y="228.812" fill="#040506" width="203.364" height="21.426"/>
<rect x="120.268" y="228.812" fill="none" stroke="#010202" stroke-width="0.4806" stroke-linejoin="round" width="203.364" height="21.426"/>
<rect x="120.268" y="250.719" fill="#FFFFFF" width="203.364" height="21.427"/>
<rect x="120.268" y="250.719" fill="none" stroke="#010202" stroke-width="0.4806" stroke-linejoin="round" width="203.364" height="21.427"/>
<rect x="120.268" y="272.626" fill="#FFFFFF" width="203.364" height="21.427"/>
<rect x="120.268" y="272.626" fill="none" stroke="#010202" stroke-width="0.4806" stroke-linejoin="round" width="203.364" height="21.427"/>
<rect x="120.268" y="294.533" fill="#FFFFFF" width="203.364" height="21.427"/>
<rect x="120.268" y="294.533" fill="none" stroke="#010202" stroke-width="0.4806" stroke-linejoin="round" width="203.364" height="21.427"/>
<rect x="120.268" y="316.441" fill="#FFFFFF" width="203.364" height="21.426"/>
<rect x="120.268" y="316.441" fill="none" stroke="#010202" stroke-width="0.4806" stroke-linejoin="round" width="203.364" height="21.426"/>
<text transform="matrix(1 0 0 1 62.8735 241.3086)" fill="#010202" font-family="'TitilliumWeb-Regular'" font-size="7.4607">No partic</text>
<text transform="matrix(1 0 0 1 92.7275 241.3086)" fill="#010202" font-family="'TitilliumWeb-Regular'" font-size="7.4607">i</text>
<text transform="matrix(1 0 0 1 94.3994 241.3086)" fill="#010202" font-family="'TitilliumWeb-Regular'" font-size="7.4607">pation</text>
<text transform="matrix(1 0 0 1 73.729 258.5527)" fill="#010202" font-family="'TitilliumWeb-Regular'" font-size="7.4607">Indirect </text>
<text transform="matrix(1 0 0 1 73.729 267.8779)" fill="#010202" font-family="'TitilliumWeb-Regular'" font-size="7.4607">partici</text>
<text transform="matrix(1 0 0 1 93.6299 267.8779)" fill="#010202" font-family="'TitilliumWeb-Regular'" font-size="7.4607">p</text>
<text transform="matrix(1 0 0 1 97.7939 267.8779)" fill="#010202" font-family="'TitilliumWeb-Regular'" font-size="7.4607">ation</text>
<text transform="matrix(1 0 0 1 73.729 280.5273)" fill="#010202" font-family="'TitilliumWeb-Regular'" font-size="7.4607">Consultative</text>
<text transform="matrix(1 0 0 1 73.729 289.8525)" fill="#010202" font-family="'TitilliumWeb-Regular'" font-size="7.4607">partici</text>
<text transform="matrix(1 0 0 1 93.6299 289.8525)" fill="#010202" font-family="'TitilliumWeb-Regular'" font-size="7.4607">p</text>
<text transform="matrix(1 0 0 1 97.7939 289.8525)" fill="#010202" font-family="'TitilliumWeb-Regular'" font-size="7.4607">ation</text>
<text transform="matrix(1 0 0 1 91.8687 303.2227)" fill="#010202" font-family="'TitilliumWeb-Regular'" font-size="7.4607">Sha</text>
<text transform="matrix(1 0 0 1 105.1436 303.2227)" fill="#010202" font-family="'TitilliumWeb-Regular'" font-size="7.4607">r</text>
<text transform="matrix(1 0 0 1 107.6426 303.2227)" fill="#010202" font-family="'TitilliumWeb-Regular'" font-size="7.4607">ed</text>
<text transform="matrix(1 0 0 1 91.8687 312.5479)" fill="#010202" font-family="'TitilliumWeb-Regular'" font-size="7.4607">control</text>
<text transform="matrix(1 0 0 1 91.877 325.1289)" fill="#010202" font-family="'TitilliumWeb-Regular'" font-size="7.4607">Full</text>
<text transform="matrix(1 0 0 1 91.877 334.4561)" fill="#010202" font-family="'TitilliumWeb-Regular'" font-size="7.4607">control</text>
<rect x="324.219" y="202.331" fill="#FFFFFF" width="203.151" height="134.364"/>
<rect x="324.219" y="202.331" fill="none" stroke="#010202" stroke-width="0.3496" stroke-linejoin="round" width="203.151" height="134.364"/>
<text transform="matrix(1 0 0 1 327.9502 216.4297)" fill="#010202" font-family="'TitilliumWeb-Regular'" font-size="13.5649">Getting the idea</text>
<rect x="324.113" y="228.812" fill="none" stroke="#010202" stroke-width="0.4806" stroke-linejoin="round" width="203.363" height="21.426"/>
<rect x="324.113" y="250.719" fill="#010202" width="203.363" height="21.427"/>
<rect x="324.113" y="250.719" fill="none" stroke="#010202" stroke-width="0.4806" stroke-linejoin="round" width="203.363" height="21.427"/>
<rect x="324.113" y="272.626" fill="#FFFFFF" width="203.363" height="21.427"/>
<rect x="324.113" y="272.626" fill="none" stroke="#010202" stroke-width="0.4806" stroke-linejoin="round" width="203.363" height="21.427"/>
<rect x="324.113" y="294.533" fill="#FFFFFF" width="203.363" height="21.427"/>
<rect x="324.113" y="294.533" fill="none" stroke="#010202" stroke-width="0.4806" stroke-linejoin="round" width="203.363" height="21.427"/>
<rect x="324.113" y="316.441" fill="#FFFFFF" width="203.363" height="21.426"/>
<rect x="324.113" y="316.441" fill="none" stroke="#010202" stroke-width="0.4806" stroke-linejoin="round" width="203.363" height="21.426"/>
<rect x="527.887" y="202.331" fill="#FFFFFF" width="203.167" height="134.364"/>
<rect x="527.887" y="202.331" fill="none" stroke="#010202" stroke-width="0.3496" stroke-linejoin="round" width="203.167" height="134.364"/>
<text transform="matrix(1 0 0 1 531.624 216.4297)" fill="#010202" font-family="'TitilliumWeb-Regular'" font-size="13.5649">Graphic Design</text>
<rect x="527.781" y="228.812" fill="#FFFFFF" width="203.379" height="21.426"/>
<rect x="527.781" y="228.812" fill="#010202" width="203.379" height="21.426"/>
<rect x="527.781" y="250.719" fill="#FFFFFF" width="203.379" height="21.427"/>
<rect x="527.781" y="250.719" fill="none" stroke="#010202" stroke-width="0.4806" stroke-linejoin="round" width="203.379" height="21.427"/>
<rect x="527.781" y="272.626" fill="#FFFFFF" width="203.379" height="21.427"/>
<rect x="527.781" y="272.626" fill="none" stroke="#010202" stroke-width="0.4806" stroke-linejoin="round" width="203.379" height="21.427"/>
<rect x="527.781" y="294.533" fill="#FFFFFF" width="203.379" height="21.427"/>
<rect x="527.781" y="294.533" fill="none" stroke="#010202" stroke-width="0.4806" stroke-linejoin="round" width="203.379" height="21.427"/>
<rect x="527.781" y="316.441" fill="#FFFFFF" width="203.379" height="21.426"/>
<rect x="527.781" y="316.441" fill="none" stroke="#010202" stroke-width="0.4806" stroke-linejoin="round" width="203.379" height="21.426"/>
<rect x="731.569" y="202.331" fill="#FFFFFF" width="203.167" height="134.364"/>
<rect x="731.569" y="202.331" fill="none" stroke="#010202" stroke-width="0.3496" stroke-linejoin="round" width="203.167" height="134.364"/>
<text transform="matrix(1 0 0 1 735.2969 216.4297)" fill="#010202" font-family="'TitilliumWeb-Regular'" font-size="13.5649">Interface Design</text>
<rect x="731.464" y="228.812" fill="#010202" width="203.378" height="21.426"/>
<rect x="731.464" y="228.812" fill="none" stroke="#010202" stroke-width="0.4806" stroke-linejoin="round" width="203.378" height="21.426"/>
<rect x="731.464" y="250.719" fill="#FFFFFF" width="203.378" height="21.427"/>
<rect x="731.464" y="250.719" fill="none" stroke="#010202" stroke-width="0.4806" stroke-linejoin="round" width="203.378" height="21.427"/>
<rect x="731.464" y="272.626" fill="#FFFFFF" width="203.378" height="21.427"/>
<rect x="731.464" y="272.626" fill="none" stroke="#010202" stroke-width="0.4806" stroke-linejoin="round" width="203.378" height="21.427"/>
<rect x="731.464" y="294.533" fill="#FFFFFF" width="203.378" height="21.427"/>
<rect x="731.464" y="294.533" fill="none" stroke="#010202" stroke-width="0.4806" stroke-linejoin="round" width="203.378" height="21.427"/>
<rect x="731.464" y="316.441" fill="#FFFFFF" width="203.378" height="21.426"/>
<rect x="731.464" y="316.441" fill="none" stroke="#010202" stroke-width="0.4806" stroke-linejoin="round" width="203.378" height="21.426"/>
<rect x="934.65" y="202.331" fill="#FFFFFF" width="203.166" height="134.364"/>
<rect x="934.65" y="202.331" fill="none" stroke="#010202" stroke-width="0.3496" stroke-linejoin="round" width="203.166" height="134.364"/>
<text transform="matrix(1 0 0 1 938.3701 216.4297)" fill="#010202" font-family="'TitilliumWeb-Regular'" font-size="13.5649">UX Design</text>
<rect x="934.545" y="228.812" fill="none" stroke="#010202" stroke-width="0.4806" stroke-linejoin="round" width="203.378" height="21.426"/>
<rect x="934.545" y="250.719" fill="none" stroke="#010202" stroke-width="0.4806" stroke-linejoin="round" width="203.378" height="21.427"/>
<rect x="934.545" y="272.626" width="203.378" height="21.427"/>
<rect x="934.545" y="272.626" fill="none" stroke="#010202" stroke-width="0.4806" stroke-linejoin="round" width="203.378" height="21.427"/>
<rect x="934.545" y="294.533" fill="#FFFFFF" width="203.378" height="21.427"/>
<rect x="934.545" y="294.533" fill="none" stroke="#010202" stroke-width="0.4806" stroke-linejoin="round" width="203.378" height="21.427"/>
<rect x="934.545" y="316.441" fill="#FFFFFF" width="203.378" height="21.426"/>
<rect x="934.545" y="316.441" fill="none" stroke="#010202" stroke-width="0.4806" stroke-linejoin="round" width="203.378" height="21.426"/>
<rect x="1138.372" y="202.331" fill="#FFFFFF" width="203.166" height="134.364"/>
<rect x="1138.372" y="202.331" fill="none" stroke="#010202" stroke-width="0.3496" stroke-linejoin="round" width="203.166" height="134.364"/>
<text transform="matrix(1 0 0 1 1142.123 216.4297)" fill="#010202" font-family="'TitilliumWeb-Regular'" font-size="13.5649">User testing</text>
<rect x="1138.266" y="228.812" fill="none" stroke="#010202" stroke-width="0.4806" stroke-linejoin="round" width="203.379" height="21.426"/>
<rect x="1138.266" y="250.719" fill="none" stroke="#010202" stroke-width="0.4806" stroke-linejoin="round" width="203.379" height="21.427"/>
<rect x="1138.266" y="272.626" fill="none" stroke="#010202" stroke-width="0.4806" stroke-linejoin="round" width="203.379" height="21.427"/>
<rect x="1138.266" y="272.626" fill="#010202" width="203.379" height="21.427"/>
<rect x="1138.266" y="294.533" fill="none" stroke="#010202" stroke-width="0.4806" stroke-linejoin="round" width="203.379" height="21.427"/>
<rect x="1138.266" y="316.441" fill="#FFFFFF" width="203.379" height="21.426"/>
<rect x="1138.266" y="316.441" fill="none" stroke="#010202" stroke-width="0.4806" stroke-linejoin="round" width="203.379" height="21.426"/>
<rect x="1341.684" y="202.331" fill="#FFFFFF" width="203.166" height="134.364"/>
<rect x="1341.684" y="202.331" fill="none" stroke="#010202" stroke-width="0.3496" stroke-linejoin="round" width="203.166" height="134.364"/>
<text transform="matrix(1 0 0 1 1345.4346 216.4297)" fill="#010202" font-family="'TitilliumWeb-Regular'" font-size="13.5649">Promoton</text>
<rect x="1341.577" y="228.812" fill="none" stroke="#010202" stroke-width="0.4806" stroke-linejoin="round" width="203.379" height="21.426"/>
<rect x="1341.577" y="250.719" fill="none" stroke="#010202" stroke-width="0.4806" stroke-linejoin="round" width="203.379" height="21.427"/>
<rect x="1341.577" y="272.626" fill="none" stroke="#010202" stroke-width="0.4806" stroke-linejoin="round" width="203.379" height="21.427"/>
<rect x="1341.577" y="294.533" fill="#010202" width="203.379" height="21.427"/>
<rect x="1341.577" y="294.533" fill="none" stroke="#010202" stroke-width="0.4806" stroke-linejoin="round" width="203.379" height="21.427"/>
<rect x="1341.577" y="316.441" fill="#FFFFFF" width="203.379" height="21.426"/>
<rect x="1341.577" y="316.441" fill="none" stroke="#010202" stroke-width="0.4806" stroke-linejoin="round" width="203.379" height="21.426"/>
<g>
	<text transform="matrix(1 0 0 1 56.4038 377.7725)" fill="#010202" font-family="'TitilliumWeb-Regular'" font-size="7.4607">01- brainstorming</text>
	<rect x="120.205" y="370.158" fill="#FFFFFF" width="203.427" height="11.662"/>
	<rect x="120.205" y="370.158" fill="#010202" stroke="#010202" stroke-miterlimit="10" width="203.427" height="11.662"/>
	<rect x="324.113" y="370.158" fill="#FFFFFF" width="203.426" height="11.662"/>
	
		<rect x="324.113" y="370.158" fill="none" stroke="#010202" stroke-width="0.4806" stroke-linejoin="round" width="203.426" height="11.662"/>
	<rect x="527.781" y="370.158" fill="#FFFFFF" width="203.438" height="11.662"/>
	
		<rect x="527.781" y="370.158" fill="none" stroke="#010202" stroke-width="0.4806" stroke-linejoin="round" width="203.438" height="11.662"/>
	<rect x="731.464" y="370.158" fill="#FFFFFF" width="203.44" height="11.662"/>
	
		<rect x="731.464" y="370.158" fill="none" stroke="#010202" stroke-width="0.4806" stroke-linejoin="round" width="203.44" height="11.662"/>
	<rect x="934.545" y="370.158" fill="#FFFFFF" width="203.439" height="11.662"/>
	
		<rect x="934.545" y="370.158" fill="none" stroke="#010202" stroke-width="0.4806" stroke-linejoin="round" width="203.439" height="11.662"/>
	<rect x="1138.266" y="370.158" fill="#FFFFFF" width="203.438" height="11.662"/>
	
		<rect x="1138.266" y="370.158" fill="none" stroke="#010202" stroke-width="0.4806" stroke-linejoin="round" width="203.438" height="11.662"/>
	<rect x="1341.577" y="370.158" fill="#FFFFFF" width="203.438" height="11.662"/>
	
		<rect x="1341.577" y="370.158" fill="none" stroke="#010202" stroke-width="0.4806" stroke-linejoin="round" width="203.438" height="11.662"/>
</g>
<g>
	<rect x="120.205" y="400.572" fill="#FFFFFF" width="203.427" height="11.66"/>
	
		<rect x="120.205" y="400.572" fill="none" stroke="#010202" stroke-width="0.4806" stroke-linejoin="round" width="203.427" height="11.66"/>
	<rect x="324.113" y="400.572" fill="#FFFFFF" width="203.426" height="11.66"/>
	<rect x="324.113" y="400.572" fill="#010202" stroke="#010202" stroke-miterlimit="10" width="203.426" height="11.66"/>
	<rect x="527.781" y="400.572" fill="#FFFFFF" width="203.438" height="11.66"/>
	<rect x="527.781" y="400.572" fill="#010202" stroke="#010202" stroke-miterlimit="10" width="203.438" height="11.66"/>
	<rect x="731.464" y="400.572" fill="#FFFFFF" width="203.44" height="11.66"/>
	
		<rect x="731.464" y="400.572" fill="none" stroke="#010202" stroke-width="0.4806" stroke-linejoin="round" width="203.44" height="11.66"/>
	<rect x="934.545" y="400.572" fill="#FFFFFF" width="203.439" height="11.66"/>
	
		<rect x="934.545" y="400.572" fill="none" stroke="#010202" stroke-width="0.4806" stroke-linejoin="round" width="203.439" height="11.66"/>
	<rect x="1138.266" y="400.572" fill="#FFFFFF" width="203.438" height="11.66"/>
	
		<rect x="1138.266" y="400.572" fill="none" stroke="#010202" stroke-width="0.4806" stroke-linejoin="round" width="203.438" height="11.66"/>
	<text transform="matrix(1 0 0 1 59.3179 408.4961)" fill="#010202" font-family="'TitilliumWeb-Regular'" font-size="7.4607">02 - Wireframing</text>
	<rect x="1341.577" y="400.572" fill="#FFFFFF" width="203.438" height="11.66"/>
	
		<rect x="1341.577" y="400.572" fill="none" stroke="#010202" stroke-width="0.4806" stroke-linejoin="round" width="203.438" height="11.66"/>
</g>
<g>
	<rect x="120.205" y="430.984" fill="#FFFFFF" width="203.427" height="11.659"/>
	
		<rect x="120.205" y="430.984" fill="none" stroke="#010202" stroke-width="0.4806" stroke-linejoin="round" width="203.427" height="11.659"/>
	<rect x="324.113" y="430.984" fill="#FFFFFF" width="203.426" height="11.659"/>
	
		<rect x="324.113" y="430.984" fill="none" stroke="#010202" stroke-width="0.4806" stroke-linejoin="round" width="203.426" height="11.659"/>
	<rect x="527.781" y="430.984" fill="#FFFFFF" width="203.438" height="11.659"/>
	<rect x="527.781" y="430.984" fill="#010202" stroke="#010202" stroke-miterlimit="10" width="203.438" height="11.659"/>
	<rect x="731.464" y="430.984" fill="#FFFFFF" width="203.44" height="11.659"/>
	<rect x="731.464" y="430.984" fill="#010202" stroke="#010202" stroke-miterlimit="10" width="203.44" height="11.659"/>
	<rect x="934.545" y="430.984" fill="#FFFFFF" width="203.439" height="11.659"/>
	
		<rect x="934.545" y="430.984" fill="none" stroke="#010202" stroke-width="0.4806" stroke-linejoin="round" width="203.439" height="11.659"/>
	<rect x="1138.266" y="430.984" fill="#FFFFFF" width="203.438" height="11.659"/>
	
		<rect x="1138.266" y="430.984" fill="none" stroke="#010202" stroke-width="0.4806" stroke-linejoin="round" width="203.438" height="11.659"/>
	<text transform="matrix(1 0 0 1 43.5405 439.2178)" fill="#010202" font-family="'TitilliumWeb-Regular'" font-size="7.4607">03 - Design &amp; Coding</text>
	<rect x="1341.577" y="430.984" fill="#FFFFFF" width="203.438" height="11.659"/>
	
		<rect x="1341.577" y="430.984" fill="none" stroke="#010202" stroke-width="0.4806" stroke-linejoin="round" width="203.438" height="11.659"/>
</g>
<g>
	<rect x="120.205" y="461.396" fill="#FFFFFF" width="203.427" height="11.659"/>
	
		<rect x="120.205" y="461.396" fill="none" stroke="#010202" stroke-width="0.4806" stroke-linejoin="round" width="203.427" height="11.659"/>
	<rect x="324.113" y="461.396" fill="#FFFFFF" width="203.426" height="11.659"/>
	
		<rect x="324.113" y="461.396" fill="none" stroke="#010202" stroke-width="0.4806" stroke-linejoin="round" width="203.426" height="11.659"/>
	<rect x="527.781" y="461.396" fill="#FFFFFF" width="203.438" height="11.659"/>
	
		<rect x="527.781" y="461.396" fill="none" stroke="#010202" stroke-width="0.4806" stroke-linejoin="round" width="203.438" height="11.659"/>
	<rect x="731.464" y="461.396" fill="#FFFFFF" width="203.44" height="11.659"/>
	<rect x="731.464" y="461.396" fill="#010202" width="203.44" height="11.659"/>
	<rect x="934.545" y="461.396" fill="#FFFFFF" width="203.439" height="11.659"/>
	<rect x="934.545" y="461.396" fill="#010202" stroke="#010202" stroke-miterlimit="10" width="203.439" height="11.659"/>
	<rect x="1138.266" y="461.396" fill="#FFFFFF" width="203.438" height="11.659"/>
	
		<rect x="1138.266" y="461.396" fill="none" stroke="#010202" stroke-width="0.4806" stroke-linejoin="round" width="203.438" height="11.659"/>
	<text transform="matrix(1 0 0 1 51.0049 469.9346)" fill="#010202" font-family="'TitilliumWeb-Regular'" font-size="7.4607">04 - Coding the UX</text>
	<rect x="1341.577" y="461.396" fill="#FFFFFF" width="203.438" height="11.659"/>
	
		<rect x="1341.577" y="461.396" fill="none" stroke="#010202" stroke-width="0.4806" stroke-linejoin="round" width="203.438" height="11.659"/>
</g>
<g>
	<rect x="120.205" y="491.808" fill="#FFFFFF" width="203.427" height="11.66"/>
	
		<rect x="120.205" y="491.808" fill="none" stroke="#010202" stroke-width="0.4806" stroke-linejoin="round" width="203.427" height="11.66"/>
	<rect x="324.113" y="491.808" fill="#FFFFFF" width="203.426" height="11.66"/>
	
		<rect x="324.113" y="491.808" fill="none" stroke="#010202" stroke-width="0.4806" stroke-linejoin="round" width="203.426" height="11.66"/>
	<rect x="527.781" y="491.808" fill="#FFFFFF" width="203.438" height="11.66"/>
	
		<rect x="527.781" y="491.808" fill="none" stroke="#010202" stroke-width="0.4806" stroke-linejoin="round" width="203.438" height="11.66"/>
	<rect x="731.464" y="491.808" fill="#FFFFFF" width="203.44" height="11.66"/>
	
		<rect x="731.464" y="491.808" fill="#010202" stroke="#010202" stroke-width="0.4806" stroke-linejoin="round" width="203.44" height="11.66"/>
	<rect x="934.545" y="491.808" fill="#FFFFFF" width="203.439" height="11.66"/>
	
		<rect x="934.545" y="491.808" fill="#010202" stroke="#010202" stroke-width="0.4806" stroke-linejoin="round" width="203.439" height="11.66"/>
	<rect x="1138.266" y="491.808" fill="#FFFFFF" width="203.438" height="11.66"/>
	<rect x="1138.266" y="491.808" fill="#010202" stroke="#010202" stroke-miterlimit="10" width="203.438" height="11.66"/>
	<text transform="matrix(1 0 0 1 56.8164 500.6582)" fill="#010202" font-family="'TitilliumWeb-Regular'" font-size="7.4607">06 - User testing</text>
	<rect x="1341.577" y="491.808" fill="#FFFFFF" width="203.438" height="11.66"/>
	
		<rect x="1341.577" y="491.808" fill="none" stroke="#010202" stroke-width="0.4806" stroke-linejoin="round" width="203.438" height="11.66"/>
</g>
<g>
	<rect x="120.205" y="522.22" fill="#FFFFFF" width="203.427" height="11.66"/>
	
		<rect x="120.205" y="522.22" fill="none" stroke="#010202" stroke-width="0.4806" stroke-linejoin="round" width="203.427" height="11.66"/>
	<rect x="324.113" y="522.22" fill="#FFFFFF" width="203.426" height="11.66"/>
	
		<rect x="324.113" y="522.22" fill="none" stroke="#010202" stroke-width="0.4806" stroke-linejoin="round" width="203.426" height="11.66"/>
	<rect x="527.781" y="522.22" fill="#FFFFFF" width="203.438" height="11.66"/>
	
		<rect x="527.781" y="522.22" fill="none" stroke="#010202" stroke-width="0.4806" stroke-linejoin="round" width="203.438" height="11.66"/>
	<rect x="731.464" y="522.22" fill="#FFFFFF" width="203.44" height="11.66"/>
	
		<rect x="731.464" y="522.22" fill="none" stroke="#010202" stroke-width="0.4806" stroke-linejoin="round" width="203.44" height="11.66"/>
	<rect x="934.545" y="522.22" fill="#FFFFFF" width="203.439" height="11.66"/>
	
		<rect x="934.545" y="522.22" fill="none" stroke="#010202" stroke-width="0.4806" stroke-linejoin="round" width="203.439" height="11.66"/>
	<rect x="1138.266" y="522.22" fill="#FFFFFF" width="203.438" height="11.66"/>
	
		<rect x="1138.266" y="522.22" fill="none" stroke="#010202" stroke-width="0.4806" stroke-linejoin="round" width="203.438" height="11.66"/>
	<rect x="1341.577" y="522.22" fill="#FFFFFF" width="203.438" height="11.66"/>
	<rect x="1341.577" y="522.22" fill="#010202" stroke="#010202" stroke-miterlimit="10" width="203.438" height="11.66"/>
	<text transform="matrix(1 0 0 1 12.8525 531.0703)" fill="#010202" font-family="'TitilliumWeb-Regular'" font-size="7.4607">05 - Promotion and distribution</text>
</g>
<g>
	<g>
		
			<line fill="none" stroke="#010202" stroke-width="0.4806" stroke-linejoin="round" x1="145.91" y1="397.123" x2="145.91" y2="381.82"/>
		<g>
			<polygon fill="#010202" points="148.307,396.422 145.91,400.572 143.514,396.422 			"/>
		</g>
	</g>
</g>
<g>
	<g>
		
			<line fill="none" stroke="#010202" stroke-width="0.4806" stroke-linejoin="round" x1="347.91" y1="427.535" x2="347.91" y2="412.232"/>
		<g>
			<polygon fill="#010202" points="350.307,426.834 347.91,430.984 345.514,426.834 			"/>
		</g>
	</g>
</g>
<g>
	<g>
		
			<line fill="none" stroke="#010202" stroke-width="0.4806" stroke-linejoin="round" x1="556.912" y1="457.943" x2="556.912" y2="442.641"/>
		<g>
			<polygon fill="#010202" points="559.308,457.242 556.912,461.393 554.515,457.242 			"/>
		</g>
	</g>
</g>
<g>
	<g>
		
			<line fill="none" stroke="#010202" stroke-width="0.4806" stroke-linejoin="round" x1="755.58" y1="488.358" x2="755.58" y2="473.056"/>
		<g>
			<polygon fill="#010202" points="757.977,487.657 755.58,491.808 753.184,487.657 			"/>
		</g>
	</g>
</g>
<g>
	<g>
		
			<line fill="none" stroke="#010202" stroke-width="0.4806" stroke-linejoin="round" x1="771.58" y1="518.769" x2="771.58" y2="473.054"/>
		<g>
			<polygon fill="#010202" points="773.977,518.067 771.58,522.218 769.184,518.067 			"/>
		</g>
	</g>
</g>
<g>
	<g>
		
			<line fill="none" stroke="#010202" stroke-width="0.4806" stroke-linejoin="round" x1="1358.244" y1="476.507" x2="1358.244" y2="480.759"/>
		
			<line fill="none" stroke="#010202" stroke-width="0.4806" stroke-linejoin="round" stroke-dasharray="7.6989,1.2831" x1="1358.244" y1="482.042" x2="1358.244" y2="517.328"/>
		
			<line fill="none" stroke="#010202" stroke-width="0.4806" stroke-linejoin="round" x1="1358.244" y1="517.97" x2="1358.244" y2="522.222"/>
		<g>
			<polygon fill="#010202" points="1355.848,477.208 1358.244,473.058 1360.641,477.208 			"/>
		</g>
	</g>
</g>
<g>
	<g>
		
			<line fill="none" stroke="#010202" stroke-width="0.4806" stroke-linejoin="round" x1="1380.911" y1="446.095" x2="1380.911" y2="450.347"/>
		
			<line fill="none" stroke="#010202" stroke-width="0.4806" stroke-linejoin="round" stroke-dasharray="8.1149,1.3525" x1="1380.911" y1="451.699" x2="1380.911" y2="517.295"/>
		
			<line fill="none" stroke="#010202" stroke-width="0.4806" stroke-linejoin="round" x1="1380.911" y1="517.971" x2="1380.911" y2="522.223"/>
		<g>
			<polygon fill="#010202" points="1378.515,446.796 1380.911,442.646 1383.308,446.796 			"/>
		</g>
	</g>
</g>
<g>
	<g>
		
			<line fill="none" stroke="#010202" stroke-width="0.4806" stroke-linejoin="round" x1="174.91" y1="518.771" x2="174.91" y2="517.354"/>
		
			<line fill="none" stroke="#010202" stroke-width="0.4806" stroke-linejoin="round" stroke-dasharray="2.8537,1.4268" x1="174.91" y1="515.927" x2="174.91" y2="383.945"/>
		
			<line fill="none" stroke="#010202" stroke-width="0.4806" stroke-linejoin="round" x1="174.91" y1="383.231" x2="174.91" y2="381.814"/>
		<g>
			<polygon fill="#010202" points="177.306,518.069 174.91,522.22 172.513,518.069 			"/>
		</g>
	</g>
</g>
<g>
	<g>
		
			<line fill="none" stroke="#010202" stroke-width="0.4806" stroke-linejoin="round" x1="792.913" y1="518.771" x2="792.913" y2="517.354"/>
		
			<line fill="none" stroke="#010202" stroke-width="0.4806" stroke-linejoin="round" stroke-dasharray="2.7665,1.3832" x1="792.913" y1="515.972" x2="792.913" y2="475.166"/>
		
			<line fill="none" stroke="#010202" stroke-width="0.4806" stroke-linejoin="round" x1="792.913" y1="474.474" x2="792.913" y2="473.057"/>
		<g>
			<polygon fill="#010202" points="795.311,518.07 792.913,522.221 790.518,518.07 			"/>
		</g>
	</g>
</g>
<g>
	<g>
		
			<line fill="none" stroke="#010202" stroke-width="0.4806" stroke-linejoin="round" x1="827.579" y1="446.093" x2="827.579" y2="447.51"/>
		
			<line fill="none" stroke="#010202" stroke-width="0.4806" stroke-linejoin="round" stroke-dasharray="2.7665,1.3832" x1="827.579" y1="448.893" x2="827.579" y2="489.698"/>
		
			<line fill="none" stroke="#010202" stroke-width="0.4806" stroke-linejoin="round" x1="827.579" y1="490.391" x2="827.579" y2="491.808"/>
		<g>
			<polygon fill="#010202" points="825.183,446.794 827.579,442.644 829.977,446.794 			"/>
		</g>
	</g>
</g>
<g>
	<g>
		
			<line fill="none" stroke="#010202" stroke-width="0.4806" stroke-linejoin="round" x1="849.579" y1="476.506" x2="849.579" y2="477.923"/>
		
			<line fill="none" stroke="#010202" stroke-width="0.4806" stroke-linejoin="round" stroke-dasharray="2.4935,1.2467" x1="849.579" y1="479.17" x2="849.579" y2="489.767"/>
		
			<line fill="none" stroke="#010202" stroke-width="0.4806" stroke-linejoin="round" x1="849.579" y1="490.391" x2="849.579" y2="491.808"/>
		<g>
			<polygon fill="#010202" points="847.183,477.207 849.579,473.057 851.977,477.207 			"/>
		</g>
	</g>
</g>
<rect x="124.106" y="387.391" width="43.349" height="6.25"/>
<text transform="matrix(1 0 0 1 134.6245 392.9697)" fill="#FFFFFF" font-family="'MyriadPro-Regular'" font-size="7.0173">Sketches</text>
<rect x="153.236" y="417.891" width="43.349" height="6.25"/>
<text transform="matrix(1 0 0 1 163.7544 423.4697)" fill="#FFFFFF" font-family="'MyriadPro-Regular'" font-size="7.0173">Concepts</text>
<rect x="324.019" y="417.891" width="43.349" height="6.25"/>
<text transform="matrix(1 0 0 1 330.9985 423.4697)" fill="#FFFFFF" font-family="'MyriadPro-Regular'" font-size="7.0173">wireframes</text>
<rect x="534.799" y="447.167" width="43.349" height="6.25"/>
<text transform="matrix(1 0 0 1 536.8179 452.7461)" fill="#FFFFFF" font-family="'MyriadPro-Regular'" font-size="7.0173">frontend files</text>
<rect x="811.953" y="481.344" width="64.547" height="6.25"/>
<text transform="matrix(1 0 0 1 826.667 486.9229)" fill="#FFFFFF" font-family="'MyriadPro-Regular'" font-size="7.0173">feedbacks</text>
</svg>
